<svg width="23" height="27" viewBox="0 0 23 27" fill="none" xmlns="http://www.w3.org/2000/svg">
<path d="M19.7672 16.1966C21.5527 16.1966 23 17.556 23 19.2331V20.4732C23 21.2474 22.7424 22.0022 22.2631 22.6321C20.041 25.5529 16.4122 27 11.4953 27C6.57748 27 2.95061 25.5524 0.733681 22.6299C0.256459 22.0009 0 21.2477 0 20.4752V19.2331C0 17.556 1.44739 16.1966 3.23286 16.1966H19.7672ZM11.4953 0C15.465 0 18.683 3.02262 18.683 6.75121C18.683 10.4798 15.465 13.5024 11.4953 13.5024C7.5256 13.5024 4.30755 10.4798 4.30755 6.75121C4.30755 3.02262 7.5256 0 11.4953 0Z" fill="#ECAFAF"/>
</svg>
